<?xml version="1.0" encoding="UTF-8"?>
<!DOCTYPE svg PUBLIC "-//W3C//DTD SVG 1.1//EN" "http://www.w3.org/Graphics/SVG/1.1/DTD/svg11.dtd">
<!-- Creator: CorelDRAW 2018 -->
<svg xmlns="http://www.w3.org/2000/svg" xml:space="preserve" width="28.9602mm" height="8.5585mm" version="1.1" style="shape-rendering:geometricPrecision; text-rendering:geometricPrecision; image-rendering:optimizeQuality; fill-rule:evenodd; clip-rule:evenodd"
viewBox="0 0 964.95 285.17"
 xmlns:xlink="http://www.w3.org/1999/xlink">
 <defs>
  <style type="text/css">
   <![CDATA[
    .fil0 {fill:#269900}
    .fil5 {fill:#269900}
    .fil1 {fill:#FFA300}
    .fil3 {fill:#269900;fill-rule:nonzero}
    .fil4 {fill:#666666;fill-rule:nonzero}
    .fil2 {fill:#FFA300;fill-rule:nonzero}
   ]]>
  </style>
 </defs>
 <g id="Layer_x0020_1">
  <metadata id="CorelCorpID_0Corel-Layer"/>
  <g id="_810663000">
   <path class="fil0" d="M161.1 161.75c0,21.41 3.42,32.09 -9.18,44.09 -4.07,3.87 -11.66,7.88 -19.4,7.88l-58.46 0c-35.34,0 -35.08,-31.51 -35.08,-53.26l14.29 0c0,15.03 -4.68,40.27 20.79,40.27l55.86 0c22.71,0 19.49,-20.47 19.49,-35.08 0,-11.02 -7.3,-16.89 -18.19,-16.89l-100.04 0c-9.68,0 -19.49,4.73 -19.49,11.69l0 64.96c0,11.52 11.41,12.99 23.39,12.99 -1.64,3.41 -6.14,16.46 -6.5,20.79l8.96 -7.93c3.71,-3.56 10.15,-12.86 14.42,-12.86l89.64 0c3.04,0 5.2,2.16 5.2,5.2 0,7.09 -9.61,5.24 -16.89,5.2l-66.3 -0.05c-13.5,-0.16 -9.97,0.31 -26.92,17.26 -9.8,9.8 -15.78,18.96 -25.01,19.16 0,-16.38 8.27,-26.48 9.09,-36.38 -5.18,-2.49 -20.78,-7.2 -20.78,-20.79l0 -68.86c0,-11.3 13.08,-20.76 29.83,-20.84l102.74 -0.01c14.9,0.1 28.52,8.88 28.52,23.45z"/>
   <path class="fil1" d="M240.35 129.27l0 67.56c0,28 -19.49,31.75 -19.49,35.08 0,10.16 14.89,34.36 11.7,48.07 -12.9,-1.08 -40.78,-42.26 -51.7,-45.64 -2.95,-0.91 -1.83,-0.46 -5.2,-0.34l-6.64 0.29c-9.27,-0.49 -10.51,-2.88 -10.51,-8.88 0,-6.7 11.73,-5.33 18.28,-5.29 16.64,0.08 20.57,20.32 38.89,32.58l-9.1 -32.48c10.42,-0.87 19.49,-8.8 19.49,-18.19l0 -74.05c0,-7.43 -3.06,-12.52 -7.53,-15.86 -4.13,-3.08 -7.98,-3.92 -12.72,-4.4 -14.34,-1.48 -127.04,-0.39 -128.39,-0.24 -0.93,0.1 -1.99,0.2 -2.59,0.26 -2.22,0.22 -2.06,0.05 -4.78,0.57 -21.1,3.97 -12.67,20.98 -20.68,20.98l-6.49 0c-10.1,0 1.34,-32.79 26,-35 13.37,-1.2 115.93,-0.26 137.76,-0.14 19.75,0.11 33.72,15.37 33.72,35.14z"/>
   <path class="fil2" d="M139.78 0c12.02,0 22.92,4.89 30.82,12.79 7.9,7.88 12.79,18.78 12.79,30.82 0,12.04 -4.88,22.95 -12.77,30.84 -7.89,7.89 -18.8,12.77 -30.84,12.77 -12.05,0 -22.95,-4.88 -30.84,-12.77 -7.89,-7.92 -12.77,-18.82 -12.77,-30.84 0,-12.02 4.88,-22.91 12.77,-30.81l0.02 -0.02c7.9,-7.89 18.8,-12.77 30.81,-12.77zm22.08 21.5c-5.63,-5.64 -13.44,-9.12 -22.08,-9.12 -8.64,0 -16.45,3.49 -22.08,9.12l-0.02 0.02c-5.64,5.63 -9.12,13.44 -9.12,22.08 0,8.64 3.49,16.45 9.12,22.08l0.02 0c5.65,5.65 13.46,9.15 22.08,9.15 8.62,0 16.43,-3.5 22.08,-9.15 5.65,-5.65 9.15,-13.46 9.15,-22.08 0,-8.62 -3.5,-16.44 -9.15,-22.08l0 -0.02z"/>
  </g>
  <path class="fil3" d="M347.02 114.67c1.05,3.61 2.22,7.67 3.5,12.2 1.27,4.53 2.64,9.21 4.09,14.05 1.45,4.83 2.9,9.67 4.39,14.51 1.5,4.83 2.95,9.32 4.35,13.45 1.14,-4.48 2.33,-9.36 3.52,-14.64 1.19,-5.27 2.31,-10.73 3.36,-16.35 1.08,-5.63 2.11,-11.23 3.12,-16.82 1.01,-5.58 1.98,-10.97 2.86,-16.15l21.37 0c-3.1,15.3 -6.66,30.82 -10.68,46.55 -4.03,15.74 -8.38,30.69 -13.06,44.84l-18.82 0c-3.08,-8.44 -6.07,-17.3 -8.97,-26.58 -2.88,-9.28 -5.74,-18.57 -8.55,-27.89 -2.81,9.32 -5.63,18.62 -8.44,27.89 -2.84,9.28 -5.78,18.14 -8.86,26.58l-18.79 0c-4.68,-14.15 -9.04,-29.1 -13.06,-44.84 -4.02,-15.74 -7.56,-31.26 -10.66,-46.55l22.29 0c0.88,5.19 1.85,10.57 2.92,16.15 1.06,5.58 2.16,11.19 3.3,16.82 1.17,5.63 2.33,11.08 3.52,16.35 1.19,5.28 2.42,10.16 3.65,14.64 1.58,-4.31 3.12,-8.88 4.61,-13.72 1.52,-4.83 2.97,-9.67 4.37,-14.51 1.41,-4.83 2.7,-9.5 3.89,-13.98 1.19,-4.48 2.27,-8.49 3.23,-12l17.54 0zm63.61 81.64l0 -91.4 61.72 0 0 17.28 -41.15 0 0 17.94 36.54 0 0 16.88 -36.54 0 0 22.02 44.18 0 0 17.28 -64.75 0zm72.67 -48.27l38.24 0 0 17.81 -38.24 0 0 -17.81zm113.16 30.6l0 17.67 -61.06 0 0 -91.4 20.57 0 0 73.72 40.49 0zm13.19 -73.72l20.57 0 0 91.4 -20.57 0 0 -91.4zm66.6 75.7c2.9,0 5.29,-0.24 7.19,-0.73 1.89,-0.48 3.41,-1.14 4.55,-1.98 1.14,-0.83 1.94,-1.82 2.38,-2.97 0.44,-1.14 0.66,-2.42 0.66,-3.83 0,-2.99 -1.41,-5.47 -4.22,-7.45 -2.81,-1.98 -7.65,-4.11 -14.51,-6.39 -2.99,-1.06 -5.98,-2.27 -8.97,-3.63 -2.99,-1.36 -5.67,-3.08 -8.05,-5.14 -2.37,-2.07 -4.31,-4.57 -5.8,-7.52 -1.49,-2.95 -2.24,-6.53 -2.24,-10.75 0,-4.22 0.79,-8.02 2.37,-11.41 1.58,-3.39 3.83,-6.27 6.73,-8.64 2.9,-2.38 6.42,-4.2 10.55,-5.47 4.13,-1.27 8.79,-1.91 13.98,-1.91 6.15,0 11.48,0.66 15.96,1.98 4.48,1.32 8.18,2.77 11.08,4.35l-5.93 16.22c-2.55,-1.32 -5.38,-2.49 -8.51,-3.5 -3.12,-1.01 -6.88,-1.52 -11.28,-1.52 -4.92,0 -8.46,0.68 -10.62,2.04 -2.15,1.36 -3.23,3.45 -3.23,6.26 0,1.67 0.39,3.08 1.19,4.22 0.79,1.14 1.91,2.18 3.36,3.1 1.45,0.92 3.12,1.76 5.01,2.51 1.89,0.75 3.98,1.52 6.26,2.31 4.75,1.76 8.88,3.5 12.4,5.21 3.52,1.72 6.44,3.72 8.77,6 2.33,2.29 4.07,4.97 5.21,8.05 1.14,3.08 1.71,6.81 1.71,11.21 0,8.53 -2.99,15.15 -8.97,19.85 -5.98,4.7 -14.99,7.05 -27.04,7.05 -4.05,0 -7.69,-0.24 -10.95,-0.73 -3.25,-0.48 -6.13,-1.08 -8.64,-1.78 -2.51,-0.7 -4.66,-1.45 -6.46,-2.24 -1.8,-0.79 -3.32,-1.54 -4.55,-2.24l5.8 -16.35c2.73,1.5 6.09,2.84 10.09,4.02 4,1.19 8.9,1.78 14.71,1.78zm116.98 -75.7l0 17.54 -27.57 0 0 73.86 -20.57 0 0 -73.86 -27.56 0 0 -17.54 75.7 0zm13.19 91.4l0 -91.4 61.72 0 0 17.28 -41.15 0 0 17.94 36.54 0 0 16.88 -36.54 0 0 22.02 44.18 0 0 17.28 -64.75 0zm141.25 0c-5.89,-10.46 -12.27,-20.79 -19.12,-30.99 -6.86,-10.2 -14.16,-19.83 -21.89,-28.88l0 59.88 -20.31 0 0 -91.4 16.75 0c2.9,2.9 6.11,6.46 9.63,10.68 3.52,4.22 7.1,8.73 10.75,13.52 3.65,4.79 7.27,9.76 10.88,14.9 3.61,5.14 6.99,10.09 10.16,14.84l0 -53.94 20.44 0 0 91.4 -17.28 0z"/>
  <g id="_810664776">
   <path class="fil4" d="M311.65 248.94c0,2.12 0.26,4.03 0.78,5.72 0.52,1.7 1.26,3.16 2.24,4.39 0.97,1.22 2.17,2.17 3.58,2.83 1.41,0.67 3.03,1 4.85,1 1.79,0 3.39,-0.33 4.82,-1 1.43,-0.66 2.64,-1.61 3.61,-2.83 0.97,-1.23 1.72,-2.69 2.24,-4.39 0.52,-1.7 0.78,-3.61 0.78,-5.72 0,-2.12 -0.26,-4.04 -0.78,-5.75 -0.52,-1.72 -1.27,-3.2 -2.24,-4.42 -0.98,-1.22 -2.18,-2.17 -3.61,-2.83 -1.43,-0.66 -3.04,-1 -4.82,-1 -1.83,0 -3.44,0.34 -4.85,1.03 -1.41,0.68 -2.61,1.64 -3.58,2.86 -0.98,1.22 -1.72,2.7 -2.24,4.41 -0.52,1.72 -0.78,3.62 -0.78,5.69zm32.92 0c0,3.69 -0.55,6.94 -1.65,9.74 -1.1,2.8 -2.6,5.14 -4.51,7.03 -1.91,1.89 -4.18,3.31 -6.81,4.26 -2.63,0.95 -5.46,1.43 -8.49,1.43 -2.95,0 -5.72,-0.48 -8.34,-1.43 -2.61,-0.95 -4.89,-2.38 -6.84,-4.26 -1.95,-1.89 -3.49,-4.23 -4.6,-7.03 -1.12,-2.8 -1.68,-6.05 -1.68,-9.74 0,-3.69 0.58,-6.94 1.74,-9.74 1.16,-2.8 2.73,-5.15 4.69,-7.06 1.97,-1.91 4.25,-3.34 6.85,-4.29 2.59,-0.96 5.32,-1.43 8.18,-1.43 2.95,0 5.72,0.48 8.34,1.43 2.61,0.95 4.89,2.38 6.84,4.29 1.95,1.91 3.48,4.26 4.6,7.06 1.12,2.8 1.68,6.04 1.68,9.74zm7.46 -10.02c1.58,-0.46 3.61,-0.88 6.1,-1.28 2.49,-0.39 5.1,-0.59 7.84,-0.59 2.78,0 5.09,0.36 6.94,1.09 1.85,0.73 3.31,1.75 4.39,3.08 1.08,1.33 1.85,2.9 2.3,4.73 0.46,1.83 0.68,3.86 0.68,6.1l0 18.48 -9.27 0 0 -17.36c0,-2.99 -0.4,-5.1 -1.18,-6.35 -0.79,-1.24 -2.26,-1.87 -4.42,-1.87 -0.66,0 -1.37,0.03 -2.12,0.09 -0.75,0.06 -1.41,0.13 -1.99,0.22l0 25.26 -9.27 0 0 -31.61zm49.72 32.23c-2.7,-0.04 -4.88,-0.33 -6.56,-0.87 -1.68,-0.54 -3.01,-1.3 -3.99,-2.27 -0.97,-0.98 -1.64,-2.16 -1.99,-3.55 -0.35,-1.39 -0.53,-2.96 -0.53,-4.7l0 -36.03 9.27 -1.49 0 35.65c0,0.83 0.06,1.58 0.19,2.24 0.12,0.67 0.36,1.23 0.71,1.68 0.35,0.46 0.86,0.83 1.53,1.12 0.66,0.29 1.56,0.48 2.68,0.56l-1.31 7.65zm15.87 -0.62l-9.27 0 0 -32.73 9.27 0 0 32.73zm0.87 -42.19c0,1.7 -0.55,3.04 -1.65,4.02 -1.1,0.97 -2.4,1.46 -3.89,1.46 -1.49,0 -2.79,-0.49 -3.89,-1.46 -1.1,-0.98 -1.65,-2.32 -1.65,-4.02 0,-1.7 0.55,-3.04 1.65,-4.01 1.1,-0.98 2.4,-1.46 3.89,-1.46 1.49,0 2.79,0.49 3.89,1.46 1.1,0.97 1.65,2.31 1.65,4.01zm7.84 10.58c1.58,-0.46 3.61,-0.88 6.1,-1.28 2.49,-0.39 5.1,-0.59 7.84,-0.59 2.78,0 5.09,0.36 6.94,1.09 1.85,0.73 3.31,1.75 4.39,3.08 1.08,1.33 1.85,2.9 2.3,4.73 0.46,1.83 0.68,3.86 0.68,6.1l0 18.48 -9.27 0 0 -17.36c0,-2.99 -0.4,-5.1 -1.18,-6.35 -0.79,-1.24 -2.26,-1.87 -4.42,-1.87 -0.66,0 -1.37,0.03 -2.12,0.09 -0.75,0.06 -1.41,0.13 -1.99,0.22l0 25.26 -9.27 0 0 -31.61zm35.09 15.49c0,-2.9 0.45,-5.44 1.34,-7.62 0.89,-2.18 2.06,-3.99 3.52,-5.44 1.45,-1.45 3.12,-2.55 5.01,-3.3 1.89,-0.75 3.83,-1.12 5.82,-1.12 4.65,0 8.32,1.42 11.01,4.26 2.7,2.84 4.05,7.02 4.05,12.54 0,0.54 -0.02,1.13 -0.06,1.77 -0.04,0.64 -0.08,1.21 -0.13,1.71l-21.03 0c0.21,1.91 1.1,3.42 2.68,4.54 1.58,1.12 3.69,1.68 6.35,1.68 1.7,0 3.37,-0.16 5.01,-0.47 1.64,-0.31 2.98,-0.69 4.02,-1.15l1.24 7.53c-0.5,0.25 -1.16,0.5 -1.99,0.75 -0.83,0.25 -1.75,0.47 -2.77,0.65 -1.02,0.19 -2.11,0.34 -3.27,0.47 -1.16,0.13 -2.32,0.19 -3.48,0.19 -2.95,0 -5.51,-0.43 -7.69,-1.31 -2.18,-0.87 -3.98,-2.06 -5.41,-3.58 -1.43,-1.52 -2.49,-3.31 -3.18,-5.38 -0.68,-2.07 -1.03,-4.31 -1.03,-6.72zm21.78 -3.55c-0.04,-0.79 -0.18,-1.56 -0.4,-2.3 -0.23,-0.75 -0.58,-1.41 -1.06,-1.99 -0.48,-0.58 -1.08,-1.06 -1.8,-1.43 -0.73,-0.37 -1.63,-0.56 -2.71,-0.56 -1.04,0 -1.93,0.18 -2.68,0.53 -0.75,0.35 -1.37,0.82 -1.87,1.4 -0.5,0.58 -0.88,1.25 -1.15,2.02 -0.27,0.77 -0.47,1.54 -0.59,2.33l12.26 0z"/>
   <path class="fil5" d="M551.43 225.77c12.6,0 22.81,10.22 22.81,22.81 0,12.6 -10.22,22.81 -22.81,22.81 -12.6,0 -22.81,-10.22 -22.81,-22.81 0,-12.6 10.22,-22.81 22.81,-22.81z"/>
  </g>
 </g>
</svg>
